<?xml version="1.0" encoding="utf-8"?>
<!-- Generator: Adobe Illustrator 22.0.1, SVG Export Plug-In . SVG Version: 6.00 Build 0)  -->
<svg version="1.1" id="Layer_1" xmlns="http://www.w3.org/2000/svg" xmlns:xlink="http://www.w3.org/1999/xlink" x="0px" y="0px"
	 viewBox="0 0 55.1 57.1" style="enable-background:new 0 0 55.1 57.1;" xml:space="preserve">
<style type="text/css">
	.st0{fill:#FFFFFF;}
	.st1{fill:#666666;}
</style>
<circle class="st0" cx="23.1" cy="23.4" r="18.3"/>
<path class="st1" d="M54.5,51.9L40.9,37.8c3.5-4.1,5.4-9.4,5.4-14.8c0-12.7-10.3-23-23-23s-23,10.3-23,23s10.3,23,23,23
	c4.8,0,9.3-1.4,13.2-4.2L50.2,56c0.6,0.6,1.3,0.9,2.2,0.9c0.8,0,1.5-0.3,2.1-0.8C55.6,55,55.6,53.1,54.5,51.9z M23.3,6
	c9.4,0,17,7.6,17,17s-7.6,17-17,17s-17-7.6-17-17S13.9,6,23.3,6z"/>
</svg>
